<svg width="48" height="48" viewBox="0 0 48 48" fill="none" xmlns="http://www.w3.org/2000/svg">
<rect width="48" height="48" fill="#323439"/>
<path d="M17.5771 35H13.1826V13.6719H17.5771V35ZM26.0586 27.4854V35H21.6641V13.6719H29.9844C31.5859 13.6719 32.9922 13.9648 34.2031 14.5508C35.4238 15.1367 36.3613 15.9717 37.0156 17.0557C37.6699 18.1299 37.9971 19.3555 37.9971 20.7324C37.9971 22.8223 37.2793 24.4727 35.8438 25.6836C34.418 26.8848 32.4404 27.4854 29.9111 27.4854H26.0586ZM26.0586 23.9258H29.9844C31.1465 23.9258 32.0303 23.6523 32.6357 23.1055C33.251 22.5586 33.5586 21.7773 33.5586 20.7617C33.5586 19.7168 33.251 18.8721 32.6357 18.2275C32.0205 17.583 31.1709 17.251 30.0869 17.2314H26.0586V23.9258Z" fill="white"/>
</svg>
